<svg style="display: none;" version="1.1" xmlns="http://www.w3.org/2000/svg">
    <symbol id="hPa" viewBox="0 0 600 600">
        <path d="m349.98 77.777c-135.51 0-245.5 110.05-245.5 245.56 0 58.391 20.371 112.1 54.449 154.25h-0.003906c3.0547 3.6953 8.5117 4.2461 12.242 1.2344 3.7305-3.0078 4.3438-8.457 1.3789-12.223-31.66-39.16-50.57-88.949-50.57-143.27 0-126.05 101.95-228.06 228-228.06s228.08 102.02 228.08 228.06c0 54.496-19.109 104.44-50.961 143.66-2.8555 3.7734-2.2031 9.1289 1.4688 12.109 3.6758 2.9805 9.0547 2.5078 12.152-1.0664 34.285-42.215 54.84-96.109 54.84-154.7 0-135.51-110.07-245.56-245.58-245.56zm83.211 93.516-9.2461 0.64844c-7 0.49609-13.695 4.4453-17.434 10.922l-58.977 102.11c-20.328 1.4766-36.879 17.684-36.879 38.367 0 21.641 17.68 39.34 39.324 39.34 21.641 0 39.41-17.699 39.41-39.34-0.003906-5.4414-2.418-10.352-4.5781-15.297l59.609-103.29c5.9844-10.363 2.3672-23.926-8-29.906-0.98828-0.57031-2.1367-0.36719-3.1797-0.76953zm-8.0156 18.148c0.82422-0.066406 1.6016 0.097656 2.4453 0.58203 2.2305 1.2852 2.9102 3.7148 1.625 5.9453l-63.949 110.84 2.9727 4.5117c2.3555 3.5703 3.6211 7.7383 3.6211 12.016 0 12.184-9.7227 21.84-21.91 21.84-12.184 0-21.891-9.6562-21.891-21.84s9.707-21.891 21.891-21.891c0.74219 0 1.4648 0.066406 2.2031 0.13281l5.6914 0.58203 63.812-110.52c0.80859-1.3984 2.0859-2.0859 3.4883-2.1875z"/>
    </symbol>

    <symbol id="wind-speed" viewBox="0 0 24 24">
        <path d="M11 10h-11v-2h11c.552 0 1-.448 1-1s-.448-1-1-1c-.403 0-.747.242-.905.587l-1.749-.956c.499-.965 1.494-1.631 2.654-1.631 3.971 0 3.969 6 0 6zm7 7c0-1.656-1.344-3-3-3h-15v2h15c.552 0 1 .448 1 1s-.448 1-1 1c-.403 0-.747-.242-.905-.587l-1.749.956c.499.965 1.494 1.631 2.654 1.631 1.656 0 3-1.344 3-3zm1.014-7.655c.082-.753.712-1.345 1.486-1.345.827 0 1.5.673 1.5 1.5s-.673 1.5-1.5 1.5h-20.5v2h20.5c1.932 0 3.5-1.568 3.5-3.5s-1.568-3.5-3.5-3.5c-1.624 0-2.977 1.116-3.372 2.617l1.886.728z"/>
    </symbol>

    <symbol id="humidity" viewBox="0 0 24 24">
        <path d="M12 0c-4.87 7.197-8 11.699-8 16.075 0 4.378 3.579 7.925 8 7.925s8-3.547 8-7.925c0-4.376-3.13-8.878-8-16.075zm-.027 5.12c.467.725 1.027 1.987 1.027 3.32 0 3.908-4 4.548-4 2.17 0-1.633 1.988-4.044 2.973-5.49z"/>
    </symbol>

    <symbol id="arrow-left" viewBox="0 0 20 20">
        <path d="M4.64119 12.5L7.51402 15.2038C7.81565 15.4877 7.83004 15.9624 7.54615 16.264C7.26226 16.5657 6.78761 16.58 6.48598 16.2961L2.23598 12.2961C2.08539 12.1544 2 11.9568 2 11.75C2 11.5432 2.08539 11.3456 2.23598 11.2038L6.48598 7.20385C6.78761 6.91996 7.26226 6.93435 7.54615 7.23598C7.83004 7.53761 7.81565 8.01226 7.51402 8.29615L4.64118 11L14.75 11C15.7165 11 16.5 10.2165 16.5 9.25V4.75C16.5 4.33579 16.8358 4 17.25 4C17.6642 4 18 4.33579 18 4.75V9.25C18 11.0449 16.5449 12.5 14.75 12.5L4.64119 12.5Z"/>
    </symbol>

    <symbol id="eye" viewBox="0 0 24 24">
        <path d="m11.998 5c-4.078 0-7.742 3.093-9.853 6.483-.096.159-.145.338-.145.517s.048.358.144.517c2.112 3.39 5.776 6.483 9.854 6.483 4.143 0 7.796-3.09 9.864-6.493.092-.156.138-.332.138-.507s-.046-.351-.138-.507c-2.068-3.403-5.721-6.493-9.864-6.493zm8.413 7c-1.837 2.878-4.897 5.5-8.413 5.5-3.465 0-6.532-2.632-8.404-5.5 1.871-2.868 4.939-5.5 8.404-5.5 3.518 0 6.579 2.624 8.413 5.5zm-8.411-4c2.208 0 4 1.792 4 4s-1.792 4-4 4-4-1.792-4-4 1.792-4 4-4zm0 1.5c-1.38 0-2.5 1.12-2.5 2.5s1.12 2.5 2.5 2.5 2.5-1.12 2.5-2.5-1.12-2.5-2.5-2.5z"/>
    </symbol>

    <symbol id="garbage-can" viewBox="0 0 24 24">
        <path d="M9 3h6v-1.75c0-.066-.026-.13-.073-.177-.047-.047-.111-.073-.177-.073h-5.5c-.066 0-.13.026-.177.073-.047.047-.073.111-.073.177v1.75zm11 1h-16v18c0 .552.448 1 1 1h14c.552 0 1-.448 1-1v-18zm-10 3.5c0-.276-.224-.5-.5-.5s-.5.224-.5.5v12c0 .276.224.5.5.5s.5-.224.5-.5v-12zm5 0c0-.276-.224-.5-.5-.5s-.5.224-.5.5v12c0 .276.224.5.5.5s.5-.224.5-.5v-12zm8-4.5v1h-2v18c0 1.105-.895 2-2 2h-14c-1.105 0-2-.895-2-2v-18h-2v-1h7v-2c0-.552.448-1 1-1h6c.552 0 1 .448 1 1v2h7z"/>
    </symbol>

    <symbol id="dragg-handle" viewBox="0 0 24 24">
        <path d="M24 18v1h-24v-1h24zm0-6v1h-24v-1h24zm0-6v1h-24v-1h24z" fill="#1040e2"/>
        <path d="M24 19h-24v-1h24v1zm0-6h-24v-1h24v1zm0-6h-24v-1h24v1z"/>
    </symbol>

    <symbol id="gear" viewBox="0 0 24 24">
        <path d="M12 8.666c-1.838 0-3.333 1.496-3.333 3.334s1.495 3.333 3.333 3.333 3.333-1.495 3.333-3.333-1.495-3.334-3.333-3.334m0 7.667c-2.39 0-4.333-1.943-4.333-4.333s1.943-4.334 4.333-4.334 4.333 1.944 4.333 4.334c0 2.39-1.943 4.333-4.333 4.333m-1.193 6.667h2.386c.379-1.104.668-2.451 2.107-3.05 1.496-.617 2.666.196 3.635.672l1.686-1.688c-.508-1.047-1.266-2.199-.669-3.641.567-1.369 1.739-1.663 3.048-2.099v-2.388c-1.235-.421-2.471-.708-3.047-2.098-.572-1.38.057-2.395.669-3.643l-1.687-1.686c-1.117.547-2.221 1.257-3.642.668-1.374-.571-1.656-1.734-2.1-3.047h-2.386c-.424 1.231-.704 2.468-2.099 3.046-.365.153-.718.226-1.077.226-.843 0-1.539-.392-2.566-.893l-1.687 1.686c.574 1.175 1.251 2.237.669 3.643-.571 1.375-1.734 1.654-3.047 2.098v2.388c1.226.418 2.468.705 3.047 2.098.581 1.403-.075 2.432-.669 3.643l1.687 1.687c1.45-.725 2.355-1.204 3.642-.669 1.378.572 1.655 1.738 2.1 3.047m3.094 1h-3.803c-.681-1.918-.785-2.713-1.773-3.123-1.005-.419-1.731.132-3.466.952l-2.689-2.689c.873-1.837 1.367-2.465.953-3.465-.412-.991-1.192-1.087-3.123-1.773v-3.804c1.906-.678 2.712-.782 3.123-1.773.411-.991-.071-1.613-.953-3.466l2.689-2.688c1.741.828 2.466 1.365 3.465.953.992-.412 1.082-1.185 1.775-3.124h3.802c.682 1.918.788 2.714 1.774 3.123 1.001.416 1.709-.119 3.467-.952l2.687 2.688c-.878 1.847-1.361 2.477-.952 3.465.411.992 1.192 1.087 3.123 1.774v3.805c-1.906.677-2.713.782-3.124 1.773-.403.975.044 1.561.954 3.464l-2.688 2.689c-1.728-.82-2.467-1.37-3.456-.955-.988.41-1.08 1.146-1.785 3.126"/>
    </symbol>

    <symbol id="cross" viewBox="0 0 24 24">
        <path d="M12 11.293l10.293-10.293.707.707-10.293 10.293 10.293 10.293-.707.707-10.293-10.293-10.293 10.293-.707-.707 10.293-10.293-10.293-10.293.707-.707 10.293 10.293z"/>
    </symbol>
</svg>
